# AST/ASF file generated using VICON BodyLanguage
# -----------------------------------------------
:version 1.10
:name VICON
:units
  mass 1.0
  length 0.45
  angle deg
:documentation
   .ast/.asf automatically generated from VICON data using
   VICON BodyBuilder and BodyLanguage model FoxedUp or BRILLIANT.MOD
:root
   order TX TY TZ RX RY RZ
   axis XYZ
   position 0 0 0  
   orientation 0 0 0 
:bonedata
  begin
     id 1 
     name lhipjoint
     direction 0.707368 -0.647095 0.284426 
     length 2.60678 
     axis 0 0 0  XYZ
  end
  begin
     id 2 
     name lfemur
     direction 0.34202 -0.939693 0  
     length 6.63812  
     axis 0 0 20  XYZ
    dof rx ry rz
    limits (-160.0 20.0)
           (-70.0 70.0)
           (-60.0 70.0)
  end
  begin
     id 3 
     name ltibia
     direction 0.34202 -0.939693 0   
     length 7.51178   
     axis 0 0 20   XYZ
    dof rx
    limits (-10.0 170.0)
  end
  begin
     id 4 
     name lfoot
     direction 0.121251 -0.333133 0.935051   
     length 1.83716   
     axis -90 7.62852e-016 20   XYZ
    dof rx rz
    limits (-45.0 90.0)
           (-70.0 20.0)
  end
  begin
     id 5 
     name ltoes
     direction 1.53611e-011 -4.21962e-011 1   
     length 0.916133   
     axis -90 7.62852e-016 20   XYZ
    dof rx
    limits (-90.0 20.0)
  end
  begin
     id 6 
     name rhipjoint
     direction -0.692419 -0.660507 0.290321   
     length 2.55385  
     axis 0 0 0  XYZ 
  end
  begin
     id 7 
     name rfemur
     direction -0.34202 -0.939693 0   
     length 7.29079   
     axis 0 0 -20   XYZ
    dof rx ry rz
    limits (-160.0 20.0)
           (-70.0 70.0)
           (-70.0 60.0)
  end
  begin
     id 8 
     name rtibia
     direction -0.34202 -0.939693 0   
     length 7.47143   
     axis 0 0 -20   XYZ
    dof rx
    limits (-10.0 170.0)
 end
 begin
     id 9 
     name rfoot
     direction -0.119907 -0.329441 0.936532   
     length 1.79439  
     axis -90 -7.62852e-016 -20   XYZ
    dof rx rz
    limits (-45.0 90.0)
           (-20.0 70.0)
  end
  begin
     id 10 
     name rtoes
     direction -1.53571e-011 -4.21961e-011 1   
     length 0.896039   
     axis -90 -7.62852e-016 -20   XYZ
    dof rx
    limits (-90.0 20.0)
  end
  begin
     id 11 
     name lowerback
     direction 0.0367721 0.992912 -0.113016   
     length 1.73542   
     axis 0 0 0   XYZ
    dof rx ry rz
    limits (-20.0 45.0)
           (-30.0 30.0)
           (-30.0 30.0)
  end
  begin
     id 12 
     name upperback
     direction -0.000314626 0.990678 0.136227   
     length 1.7514   
     axis 0 0 0   XYZ
    dof rx ry rz
    limits (-20.0 45.0)
           (-30.0 30.0)
           (-30.0 30.0)
  end
  begin
     id 13 
     name thorax
     direction -0.0226159 0.981151 0.191917   
     length 1.71471   
     axis 0 0 0   XYZ
    dof rx ry rz
    limits (-20.0 45.0)
           (-30.0 30.0)
           (-30.0 30.0)
  end
  begin
     id 14 
     name lowerneck
     direction 0.0219333 0.998071 0.0580739   
     length 1.65882   
     axis 0 0 0   XYZ
    dof rx ry rz
    limits (-20.0 45.0)
           (-30.0 30.0)
           (-30.0 30.0)
  end
  begin
     id 15 
     name upperneck
     direction 0.0384529 0.980058 -0.194957   
     length 1.6612   
     axis 0 0 0   XYZ
    dof rx ry rz
    limits (-20.0 45.0)
           (-30.0 30.0)
           (-30.0 30.0)
  end
  begin
     id 16
     name head
     direction 0.00592123 0.997421 -0.0715234  
     length 1.68077  
     axis 0 0 0   XYZ
    dof rx ry rz
    limits (-20.0 45.0)
           (-30.0 30.0)
           (-30.0 30.0)
  end
  begin
     id 17 
     name lclavicle
     direction 0.904803 0.417826 0.0821728  
     length 3.42227  
     axis 0 0 0   XYZ
    dof ry rz
    limits (-20.0 10.0)
           (0.0 20.0)
  end
  begin
     id 18 
     name lhumerus
     direction 1 -4.48965e-011 -2.68786e-027   
     length 5.11878   
     axis -180 -30 -90   XYZ
    dof rx ry rz
    limits (-60.0 90.0)
           (-90.0 90.0)
           (-90.0 90.0)
  end
  begin
     id 19
     name lradius
     direction 1 -4.48965e-011 2.61168e-028   
     length 3.59971   
     axis -180 -30 -90   XYZ
    dof rx
    limits (-10.0 170.0)
  end
  begin
     id 20
     name lwrist
     direction 1 -4.48965e-011 1.58672e-027   
     length 1.79985   
     axis -1.65735e-015 90 90   XYZ
    dof ry
    limits (-180.0 0.0)
 end
  begin
     id 21 
     name lhand
     direction 1 -4.48942e-011 3.17344e-027   
     length 0.62877   
     axis -2.02492e-015 90 90   XYZ
    dof rx rz
    limits (-90.0 90.0)
           (-45.0 45.0)
  end
  begin
     id 22 
     name lfingers
     direction 1 -4.49011e-011 6.34687e-027   
     length 0.506931   
     axis -4.04985e-015 90 90   XYZ
    dof rx
    limits (0.0 90.0)
  end
  begin
     id 23
     name lthumb
     direction 0.707107 -6.34982e-011 0.707107   
     length 0.727854   
     axis -90 45 2.85299e-015   XYZ
    dof rx rz
    limits (-45.0 45.0)
           (-45.0 45.0)
  end
  begin
     id 24 
     name rclavicle
     direction -0.945647 0.32488 0.0143075   
     length 3.52737  
     axis 0 0 0   XYZ 
    dof ry rz
    limits (-10.0 20.0)
           (-20.0 0.0)
  end
  begin
     id 25 
     name rhumerus
     direction -1 -4.48962e-011 1.92182e-027  
     length 5.4902   
     axis -180 30 90   XYZ
    dof rx ry rz
    limits (-90.0 60.0)
           (-90.0 90.0)
           (-90.0 90.0)
  end
  begin
     id 26 
     name rradius
     direction -1 -4.48967e-011 -5.97193e-028   
     length 3.20659   
     axis -180 30 90   XYZ
    dof rx
    limits (-10.0 170.0)
  end
  begin
     id 27 
     name rwrist
     direction -1 -4.48964e-011 1.58672e-027   
     length 1.6033   
     axis -1.65735e-015 -90 -90   XYZ
    dof ry
    limits (-180.0 0.0)
  end
  begin
     id 28
     name rhand
     direction -1 -4.49006e-011 3.17344e-027   
     length 0.691885   
     axis -2.02492e-015 -90 -90   XYZ
    dof rx rz
    limits (-90.0 90.0)
           (-45.0 45.0)
  end
  begin
     id 29
     name rfingers
     direction -1 -4.48908e-011 6.34687e-027   
     length 0.557815   
     axis -4.04985e-015 -90 -90   XYZ
    dof rx
    limits (0.0 90.0)
  end
  begin
     id 30
     name rthumb
     direction -0.707107 -6.34999e-011 0.707107   
     length 0.800915   
     axis -90 -45 -2.85299e-015   XYZ
    dof rx rz
    limits (-45.0 45.0)
           (-45.0 45.0)
  end
:hierarchy
  begin
    root lhipjoint rhipjoint lowerback
    lhipjoint lfemur
    lfemur ltibia
    ltibia lfoot
    lfoot ltoes
    rhipjoint rfemur
    rfemur rtibia
    rtibia rfoot
    rfoot rtoes
    lowerback upperback
    upperback thorax
    thorax lowerneck lclavicle rclavicle
    lowerneck upperneck
    upperneck head
    lclavicle lhumerus
    lhumerus lradius
    lradius lwrist
    lwrist lhand lthumb
    lhand lfingers
    rclavicle rhumerus
    rhumerus rradius
    rradius rwrist
    rwrist rhand rthumb
    rhand rfingers
  end

#!OML:ASF I:\Actors\actors\Patient Classification 1\Patient 1\Session 1\Subject1.ASF
:FULLY-SPECIFIED
:DEGREES
1
root 0.693466 17.4299 9.40333 9.99876 -2.58273 -9.28316
lowerback -1.29232 1.78447 7.04055
upperback -8.62884 2.66516 0.365861
thorax -8.08906 0.829533 -3.68856
lowerneck -3.49384 -11.0342 -6.25582
upperneck 14.2332 -16.5182 12.5537
head 6.47251 -7.63291 3.70355
rclavicle 3.1408e-014 2.38542e-015
rhumerus -54.7822 -41.3961 -51.8614
rradius 21.2012
rwrist 40.5409
rhand 7.57006 -30.7573
rfingers 7.12502
rthumb 32.8181 -57.7957
lclavicle 3.1408e-014 2.38542e-015
lhumerus -53.8159 44.7923 45.1417
lradius 18.2708
lwrist -37.4137
lhand -17.1542 -14.5117
lfingers 7.12502
lthumb 9.08658 15.2726
rfemur -3.22497 28.4392 25.9792
rtibia 1.70932
rfoot -12.7377 -28.2056
rtoes 5.68892
lfemur 7.04011 -47.2828 -13.6227
ltibia -5.10269
lfoot -30.3821 55.8408
ltoes 19.3257
2
root 0.695686 17.4298 9.40263 10.0203 -2.58009 -9.43541
lowerback -1.27906 1.80078 7.26675
upperback -8.62923 2.70382 0.484215
thorax -8.09335 0.837249 -3.69123
lowerneck -3.56622 -11.0375 -6.6952
upperneck 14.3272 -16.5246 12.709
head 6.56571 -7.64112 3.80991
rclavicle 1.69961e-014 -1.35174e-014
rhumerus -54.612 -41.1686 -51.9189
rradius 21.2285
rwrist 40.3623
rhand 7.60825 -30.7652
rfingers 7.12502
rthumb 32.8545 -57.796
lclavicle 1.69961e-014 -1.35174e-014
lhumerus -53.9951 44.9611 45.1486
lradius 18.2754
lwrist -37.4668
lhand -17.2069 -14.205
lfingers 7.12502
lthumb 9.03574 15.5815
rfemur -3.26125 28.2735 26.1338
rtibia 1.73362
rfoot -12.6769 -28.0593
rtoes 5.41381
lfemur 6.97555 -47.1332 -13.3874
ltibia -5.13223
lfoot -30.0374 55.8097
ltoes 18.948
3
root 0.697466 17.429 9.40178 10.0101 -2.55709 -9.49204
lowerback -1.25593 1.80222 7.39458
upperback -8.61157 2.71761 0.578127
thorax -8.08735 0.839526 -3.66393
lowerneck -3.58095 -11.0362 -7.15137
upperneck 14.3481 -16.522 12.9057
head 6.62997 -7.64859 3.93759
rclavicle -1.09332e-014 0
rhumerus -54.4741 -41.058 -51.8673
rradius 21.2187
rwrist 40.3157
rhand 7.66805 -30.7877
rfingers 7.12502
rthumb 32.9114 -57.8065
lclavicle -1.09332e-014 0
lhumerus -54.2614 45.2322 45.0018
lradius 18.2641
lwrist -37.6625
lhand -17.195 -14.2566
lfingers 7.12502
lthumb 9.04714 15.5294
rfemur -3.24596 28.1844 26.2026
rtibia 1.73908
rfoot -12.677 -27.9785
rtoes 5.429
lfemur 6.90124 -46.8999 -13.2431
ltibia -5.14662
lfoot -29.7329 55.6293
ltoes 18.7884
4
root 0.700154 17.4276 9.40099 10.0008 -2.52956 -9.56812
lowerback -1.21905 1.79746 7.55968
upperback -8.59586 2.72664 0.684639
thorax -8.09201 0.836814 -3.6443
lowerneck -3.59627 -11.0365 -7.63727
upperneck 14.3858 -16.5171 13.0795
head 6.70008 -7.65746 4.06297
rclavicle -1.12313e-014 7.15625e-015
rhumerus -54.3439 -40.9856 -51.7571
rradius 21.1973
rwrist 40.3338
rhand 7.7856 -30.9184
rfingers 7.12502
rthumb 33.0232 -57.9137
lclavicle -1.12313e-014 7.15625e-015
lhumerus -54.5048 45.4483 44.9092
lradius 18.2597
lwrist -37.7799
lhand -17.1649 -14.3919
lfingers 7.12502
lthumb 9.07619 15.3929
rfemur -3.23121 28.0807 26.2912
rtibia 1.74388
rfoot -12.7023 -27.8641
rtoes 5.56776
lfemur 6.86488 -46.75 -13.12
ltibia -5.15309
lfoot -29.6044 55.4886
ltoes 18.7562
5
root 0.704322 17.4258 9.39877 10.0323 -2.51366 -9.72081
lowerback -1.23285 1.78581 7.78934
upperback -8.55901 2.72595 0.845408
thorax -8.04601 0.829589 -3.60015
lowerneck -3.72548 -11.0325 -8.11332
upperneck 14.4864 -16.4915 13.1545
head 6.79838 -7.65483 4.15114
rclavicle -1.49089e-015 4.77083e-015
rhumerus -54.2041 -41.1116 -51.3593
rradius 20.8722
rwrist 40.771
rhand 7.66251 -30.767
rfingers 7.12502
rthumb 32.9061 -57.787
lclavicle -1.49089e-015 4.77083e-015
lhumerus -54.3619 45.3318 45.442
lradius 18.3176
lwrist -37.4386
lhand -17.2981 -14.3059
lfingers 7.12502
lthumb 8.94765 15.4843
rfemur -3.45181 27.3839 26.3652
rtibia 1.94443
rfoot -12.5911 -27.1869
rtoes 5.67013
lfemur 6.85978 -46.8751 -12.968
ltibia -5.15683
lfoot -29.6814 55.6254
ltoes 18.6613
6
root 0.705454 17.4263 9.41779 10.2479 -2.173 -10.3022
lowerback -1.86267 1.81012 8.49873
upperback -8.44055 2.72491 1.12908
thorax -7.5471 0.816161 -3.66746
lowerneck -3.93877 -11.1099 -8.7386
upperneck 14.5316 -16.5659 13.3078
head 6.92572 -7.70041 4.26999
rclavicle -2.08724e-014 4.77083e-015
rhumerus -54.1665 -41.5566 -50.525
rradius 20.296
rwrist 41.4761
rhand 7.28069 -30.3278
rfingers 7.12502
rthumb 32.5428 -57.4234
lclavicle -2.08724e-014 4.77083e-015
lhumerus -53.6684 44.9171 46.6973
lradius 18.3421
lwrist -36.7827
lhand -17.5486 -14.2331
lfingers 7.12502
lthumb 8.70598 15.5674
rfemur -3.77295 26.0233 26.9356
rtibia 2.12878
rfoot -12.3889 -26.1211
rtoes 5.79414
lfemur 6.64749 -46.935 -12.0939
ltibia -5.31041
lfoot -29.0833 55.6831
ltoes 18.0274
7
root 0.702552 17.4275 9.42695 10.3129 -2.07561 -10.4346
lowerback -2.10042 1.68956 8.54887
upperback -8.43512 2.54895 1.31965
thorax -7.43283 0.738292 -3.4792
lowerneck -3.87343 -11.0061 -8.99447
upperneck 14.5536 -16.4044 13.3072
head 6.92317 -7.63872 4.33116
rclavicle 1.27222e-014 1.63003e-014
rhumerus -53.9406 -41.4121 -50.42
rradius 19.977
rwrist 41.7624
rhand 7.02135 -30.1648
rfingers 7.12502
rthumb 32.296 -57.3109
lclavicle 1.27222e-014 1.63003e-014
lhumerus -54.032 45.0612 46.5304
lradius 18.4151
lwrist -36.6882
lhand -17.6652 -14.1461
lfingers 7.12502
lthumb 8.5934 15.659
rfemur -3.85152 25.5555 27.0641
rtibia 2.14641
rfoot -12.2824 -25.7594
rtoes 5.92277
lfemur 6.58017 -46.8998 -11.8532
ltibia -5.38099
lfoot -28.8345 55.6615
ltoes 17.925
8
root 0.703287 17.4263 9.42684 10.302 -2.05467 -10.5061
lowerback -1.9978 1.64428 8.67733
upperback -8.50452 2.51035 1.37096
thorax -7.57451 0.70441 -3.4989
lowerneck -3.72988 -10.9417 -9.17285
upperneck 14.5864 -16.321 13.3557
head 6.91735 -7.6108 4.39167
rclavicle -2.33572e-014 3.33958e-014
rhumerus -53.8896 -41.1367 -50.5217
rradius 19.9801
rwrist 41.5799
rhand 6.96705 -30.1775
rfingers 7.12502
rthumb 32.2443 -57.3341
lclavicle -2.33572e-014 3.33958e-014
lhumerus -54.9061 45.7 45.4909
lradius 18.4496
lwrist -37.4522
lhand -17.5851 -13.965
lfingers 7.12502
lthumb 8.67071 15.8369
rfemur -3.7482 25.6411 27.1724
rtibia 1.99745
rfoot -12.1973 -25.8745
rtoes 5.85078
lfemur 6.56933 -46.7949 -11.745
ltibia -5.39969
lfoot -28.6633 55.5898
ltoes 17.8448
9
root 0.704919 17.4248 9.42555 10.2985 -2.03437 -10.6197
lowerback -1.91351 1.58228 8.82884
upperback -8.55218 2.44962 1.46814
thorax -7.68635 0.661562 -3.48079
lowerneck -3.60682 -10.849 -9.4249
upperneck 14.6058 -16.1986 13.4578
head 6.91662 -7.56404 4.48403
rclavicle -4.17448e-015 2.50469e-014
rhumerus -53.5889 -40.7037 -50.9047
rradius 20.0911
rwrist 41.0522
rhand 7.02957 -30.4953
rfingers 7.12502
rthumb 32.3038 -57.6399
lclavicle -4.17448e-015 2.50469e-014
lhumerus -55.4598 46.0237 44.969
lradius 18.4915
lwrist -37.5964
lhand -17.3748 -13.7537
lfingers 7.12502
lthumb 8.87365 16.0398
rfemur -3.71157 25.6089 27.3119
rtibia 1.95211
rfoot -12.1869 -25.8528
rtoes 5.89582
lfemur 6.58202 -46.7783 -11.6105
ltibia -5.4266
lfoot -28.7403 55.5378
ltoes 17.8946
